<?xml version="1.0" standalone="no"?>
<!DOCTYPE svg PUBLIC "-//W3C//DTD SVG 20010904//EN"
 "http://www.w3.org/TR/2001/REC-SVG-20010904/DTD/svg10.dtd">
<svg version="1.0" xmlns="http://www.w3.org/2000/svg"
 width="512.000000pt" height="512.000000pt" viewBox="0 0 512.000000 512.000000"
 preserveAspectRatio="xMidYMid meet">

<g transform="translate(0.000000,512.000000) scale(0.100000,-0.100000)"
fill="#000000" stroke="none">
<path d="M2335 3849 c-103 -13 -197 -44 -310 -99 -337 -167 -606 -531 -705
-956 -182 -779 323 -1479 1110 -1539 173 -13 413 28 596 104 422 173 707 512
791 939 23 119 23 356 0 477 -53 274 -172 514 -350 702 -177 186 -337 267
-641 324 -55 10 -130 25 -166 33 -87 20 -239 27 -325 15z m367 -220 c29 -7 76
-13 103 -14 128 -6 321 -85 441 -178 312 -244 483 -764 384 -1167 -59 -241
-231 -477 -455 -625 -216 -142 -420 -205 -672 -205 -234 0 -427 62 -629 201
-88 61 -224 202 -272 282 -98 163 -135 305 -135 517 0 372 132 708 373 951
117 118 217 184 360 236 63 23 72 24 257 18 106 -3 216 -10 245 -16z"/>
<path d="M2160 2868 c-39 -20 -62 -76 -49 -121 28 -101 172 -87 186 19 4 35 1
46 -23 73 -33 36 -78 47 -114 29z"/>
<path d="M2848 2854 c-55 -29 -65 -102 -22 -153 21 -26 33 -31 67 -31 63 1 97
36 97 100 0 42 -15 67 -50 85 -36 19 -57 18 -92 -1z"/>
<path d="M2014 2326 c-45 -45 -45 -82 -2 -131 73 -84 255 -186 389 -219 38 -9
107 -16 165 -16 168 0 312 51 449 161 90 71 114 112 95 159 -18 43 -56 70 -99
70 -29 0 -48 -10 -95 -50 -117 -101 -215 -140 -349 -140 -140 0 -253 43 -381
145 -86 68 -120 73 -172 21z"/>
</g>
</svg>
